# xmcd
#
# Track frame offsets:
#	150
#	17595
#	34970
#	51857
#	72107
#	97830
#	114722
#	140235
#	161712
#	184920
#	206305
#	219840
#	238432
#
# Disc length: 3548 seconds
#
# Revision: 1
# Processed by: cddbd v1.5.1PL0 Copyright (c) Steve Scherf et al.
# Submitted via: audiograbber 1.83.01
#
DISCID=bc0dda0d
DTITLE=Sean Costello - Sean Costello
DYEAR=2005
DGENRE=Blues
TTITLE0=No Half Steppin´
TTITLE1=I´Ma Ram
TTITLE2=She Changed My Mind
TTITLE3=Hold On This Time
TTITLE4=Simple Twist Of Fate
TTITLE5=I´ve Got To Ride
TTITLE6=Take It Easy
TTITLE7=Peace Of Mind
TTITLE8=Father
TTITLE9=All I Can Do
TTITLE10=Big Road Blues
TTITLE11=I Get A Feeling
TTITLE12=Dont Pass Me By
EXTD=
EXTT0=
EXTT1=
EXTT2=
EXTT3=
EXTT4=
EXTT5=
EXTT6=
EXTT7=
EXTT8=
EXTT9=
EXTT10=
EXTT11=
EXTT12=
PLAYORDER=
